<?xml version="1.0" standalone="no"?>
<!DOCTYPE svg PUBLIC "-//W3C//DTD SVG 1.1//EN"
  "http://www.w3.org/Graphics/SVG/1.1/DTD/svg11.dtd">
<svg version="1.1" xmlns="http://www.w3.org/2000/svg" xmlns:xlink="http://www.w3.org/1999/xlink" width="1400" height="700" viewBox="-800 -32 1400 750" id="ccdiagram"><filter id="grayscale"><feColorMatrix type="matrix" values="0.3333 0.3333 0.3333 0 0 0.3333 0.3333 0.3333 0 0 0.3333 0.3333 0.3333 0 0 0 0 0 1 0"></feColorMatrix></filter><defs><style type="text/css">@import url('https://fonts.googleapis.com/css?family=Open+Sans:400,700|Inconsolata:400');</style></defs><g>0<g pointer-events="auto"></g>0<g pointer-events="auto"></g><g></g><g pointer-events="auto"><g opacity="1"><g id="d2081f50-19e9-42a1-8493-93173b3131d4"><g><g><polygon points="80 675, 544 407, 64 130, -400 398" stroke="#03a9f4" stroke-width="8" fill="none"></polygon></g><g><polygon points="64 130, 32 111, -192 241, -192 278" stroke="#03a9f4" stroke-width="8" fill="#03a9f4"></polygon><text font-family="Inconsolata" font-size="20pt" font-weight="bold" fill="#ffffff" transform="translate(24 142) matrix(0.707 -0.409 0.707 0.409 0 0)" text-anchor="end">VPC</text><g transform="translate(32 116) matrix(0.707 0.409 -0.707 0.409 0 0)"><svg width="34" height="32" style="fill: rgb(255, 255, 255);"><svg xmlns="http://www.w3.org/2000/svg" width="34" height="32" viewBox="0 0 34 32"><path d="M34.286 20.571a6.858 6.858 0 0 1-6.857 6.857H8c-4.411 0-8-3.589-8-8a7.993 7.993 0 0 1 4.607-7.232c-.018-.25-.036-.518-.036-.768a9.137 9.137 0 0 1 9.143-9.143c3.821 0 7.089 2.339 8.464 5.679a4.439 4.439 0 0 1 2.964-1.107 4.58 4.58 0 0 1 4.571 4.571 4.49 4.49 0 0 1-.732 2.464c3.036.714 5.304 3.429 5.304 6.679z"></path></svg></svg></g></g></g></g></g></g><g></g><g pointer-events="auto"></g><g pointer-events="none"></g><g pointer-events="auto"><g><g cursor="cell"><line x1="-352" y1="518" x2="-186" y2="422" stroke="red" stroke-width="8" opacity="0"></line><line x1="-352" y1="518" x2="-186" y2="422" stroke="#000000" stroke-width="2" stroke-linecap="round"></line><polygon points="-176 416, -202 422, -188 423, -185 431, -176 416" stroke-linejoin="round" fill="#000000" stroke="#000000" stroke-width="1"></polygon></g></g><g><g cursor="cell"><line x1="-572" y1="645" x2="-427" y2="561" stroke="red" stroke-width="8" opacity="0"></line><line x1="-572" y1="645" x2="-427" y2="561" stroke="#000000" stroke-width="2" stroke-linecap="round"></line><polygon points="-417 556, -443 561, -430 563, -427 570, -417 556" stroke-linejoin="round" fill="#000000" stroke="#000000" stroke-width="1"></polygon></g></g><g><g cursor="cell"><line x1="-96" y1="370" x2="22" y2="302" stroke="red" stroke-width="8" opacity="0"></line><line x1="-96" y1="370" x2="22" y2="302" stroke="#000000" stroke-width="2" stroke-linecap="round"></line><polygon points="32 296, 6 301, 20 303, 23 311, 32 296" stroke-linejoin="round" fill="#000000" stroke="#000000" stroke-width="1"></polygon></g></g><g><g cursor="cell"><line x1="240" y1="379" x2="106" y2="302" stroke="red" stroke-width="8" opacity="0"></line><line x1="240" y1="379" x2="106" y2="302" stroke="#000000" stroke-width="2" stroke-linecap="round"></line><polygon points="96 296, 105 311, 108 303, 122 301, 96 296" stroke-linejoin="round" fill="#000000" stroke="#000000" stroke-width="1"></polygon></g></g></g><g pointer-events="auto"><g opacity="1"><g id="92627411-ac22-4d61-b85a-69d01b284a26" transform="translate(0 0)"><svg x="0" y="177" height="137.556" width="128" viewBox="0 0 33.867 36.395"><g fill="#4286c5" font-family="sans-serif" font-size="3.175" stroke-width=".265" style="line-height: 0%;"><path d="M.187 12.17v14.365l16.586 9.577V21.747l-4.146-7.183-8.293-4.787z" fill="#d2d2d4"></path><path d="M20.955 14.564l8.292-4.787 4.147 2.394v14.364l-16.587 9.576V21.748z" fill="#b8b8bb"></path><path d="M4.334 9.777l8.292 4.788h8.293l8.293-4.788V4.988L20.919.2h-8.293L4.334 4.988zM12.856 14.565h8.294l-4.147 7.182z" fill="#ececed"></path><path d="M4.394 4.806v4.789L.247 11.988zM29.212 9.595v-4.79l4.146 7.183z" fill="#d2d2d4"></path><path d="M208.47 90.288l4.345-4.346 4.346 8.693z" fill="none" stroke="#83838a" stroke-width=".264" transform="scale(1.34943 .77909) rotate(45 195.366 -185.783)"></path><path d="M199.734 94.678l13.037 13.037h17.383L217.117 94.68l-8.692-4.347h-8.69zM212.819 85.928v-8.69h4.345l13.037 13.037.001 17.382-13.037-13.037zM199.734 90.333h8.69l4.347-4.346v-8.69l-4.347-4.347h-8.69l-4.346 4.346v8.69z" fill="none" stroke="#83838a" stroke-width=".257" transform="scale(1.34943 .77909) rotate(45 195.366 -185.783)"></path><path d="M212.855 107.631l-13.037-13.037-4.346-8.692v-8.69l4.346-4.347h8.69l8.692 4.346 13.038 13.038v17.383z" fill="none" stroke="#000000" stroke-width=".514" transform="scale(1.34943 .77909) rotate(45 195.366 -185.783)"></path><path d="M10.6 9.65l5.492-5.978-.062-.036q-2.286 1.471-3.094 1.938L8.238 8.286 6.325 7.18l10.099-5.83 2.915 1.682-5.333 5.84.042.023 10.258-2.995 2.915 1.683-10.1 5.83-1.996-1.152 4.78-2.76q.339-.195.788-.447.456-.247 2.445-1.3l-.062-.036-10.514 3.063z" font-family="Open Sans" font-size="14.883" style="line-height: 1.25;"></path></g></svg></g></g><g opacity="1"><g id="6dfd090e-3fcf-485e-a7fa-263ac8b7be30" transform="translate(0 0)"><svg x="240" y="321" height="113.438" width="96" viewBox="0 0 25.4 30.014"><g transform="translate(412.599 -86.957)"><path d="M-412.333 102.348v4.786l8.29 4.785h8.289l8.29-4.785v-4.786l-8.29-4.786h-8.29z" fill="#3c3c3c" fill-rule="evenodd"></path><path d="M-395.754 111.92l8.29-4.786v4.785l-8.29 4.786z" fill="#090909" fill-rule="evenodd"></path><path d="M-404.044 111.92h8.29v4.785h-8.29z" fill="#232323" fill-rule="evenodd"></path><path d="M-412.333 107.134v4.785l8.29 4.786v-4.786z" fill="#232323" fill-rule="evenodd"></path><path d="M-412.333 107.134l8.29 4.785h8.289l8.29-4.785M-404.044 111.92v4.785M-395.754 111.92v4.785" fill="none" stroke="#a2a2a2" stroke-width=".26588"></path><path d="M-412.333 102.348v9.571l8.29 4.786h8.289l8.29-4.786v-9.571l-8.29-4.786h-8.29z" fill="none" stroke="#000000" stroke-width=".53176"></path><path d="M-412.333 97.178v4.786l8.29 4.786h8.289l8.29-4.786v-4.786l-8.29-4.786h-8.29z" fill="#3c3c3c" fill-rule="evenodd"></path><path d="M-395.754 106.75l8.29-4.786v4.786l-8.29 4.786z" fill="#090909" fill-rule="evenodd"></path><path d="M-404.044 106.75h8.29v4.786h-8.29z" fill="#232323" fill-rule="evenodd"></path><path d="M-412.333 101.964v4.786l8.29 4.786v-4.786z" fill="#232323" fill-rule="evenodd"></path><path d="M-412.333 101.964l8.29 4.786h8.289l8.29-4.786M-404.044 106.75v4.786M-395.754 106.75v4.786" fill="none" stroke="#a2a2a2" stroke-width=".266"></path><path d="M-412.333 97.178v9.572l8.29 4.786h8.289l8.29-4.786v-9.572l-8.29-4.786h-8.29z" fill="none" stroke="#000000" stroke-width=".532"></path><path d="M-412.333 92.01v4.785l8.29 4.786h8.289l8.29-4.786v-4.786l-8.29-4.786h-8.29z" fill="#3c3c3c" fill-rule="evenodd"></path><path d="M-395.754 101.58l8.29-4.785v4.786l-8.29 4.786z" fill="#090909" fill-rule="evenodd"></path><path d="M-404.044 101.58h8.29v4.787h-8.29z" fill="#232323" fill-rule="evenodd"></path><path d="M-412.333 96.795v4.786l8.29 4.786v-4.786z" fill="#232323" fill-rule="evenodd"></path><path d="M-412.333 96.795l8.29 4.786h8.289l8.29-4.786M-404.044 101.58v4.787M-395.754 101.58v4.787" fill="none" stroke="#a2a2a2" stroke-width=".266"></path><path d="M-412.333 92.01v9.57l8.29 4.787h8.289l8.29-4.786v-9.572l-8.29-4.786h-8.29z" fill="none" stroke="#000000" stroke-width=".532"></path><circle cx="-136.478" cy="325.284" fill="#f4b934" r="5.801" transform="scale(1.22475 .7071) rotate(45)"></circle><g font-family="sans-serif" font-size="3.191" stroke-width=".266" style="line-height: 0%;"><path d="M-399.242 93.57l.48-.601q.222-.275.177-.448-.04-.17-.467-.416l-.507-.293 1.065-.614.937.541q.825.476.92.934.1.46-.417 1.114l-3.452 4.39-1.622-.937 1.654-2.121-3.729.923-1.622-.936z" fill="#ffffff" font-family="Droid Serif" font-size="9.971" style="line-height: 1.25;"></path></g></g></svg></g></g><g opacity="1"><g id="71cc3795-de14-49b3-909e-30d348807926" transform="translate(0 0)"><svg x="-192" y="312" height="113.438" width="96" viewBox="0 0 25.4 30.014"><g transform="translate(412.599 -86.957)"><path d="M-412.333 102.348v4.786l8.29 4.785h8.289l8.29-4.785v-4.786l-8.29-4.786h-8.29z" fill="#3c3c3c" fill-rule="evenodd"></path><path d="M-395.754 111.92l8.29-4.786v4.785l-8.29 4.786z" fill="#090909" fill-rule="evenodd"></path><path d="M-404.044 111.92h8.29v4.785h-8.29z" fill="#232323" fill-rule="evenodd"></path><path d="M-412.333 107.134v4.785l8.29 4.786v-4.786z" fill="#232323" fill-rule="evenodd"></path><path d="M-412.333 107.134l8.29 4.785h8.289l8.29-4.785M-404.044 111.92v4.785M-395.754 111.92v4.785" fill="none" stroke="#a2a2a2" stroke-width=".26588"></path><path d="M-412.333 102.348v9.571l8.29 4.786h8.289l8.29-4.786v-9.571l-8.29-4.786h-8.29z" fill="none" stroke="#000000" stroke-width=".53176"></path><path d="M-412.333 97.178v4.786l8.29 4.786h8.289l8.29-4.786v-4.786l-8.29-4.786h-8.29z" fill="#3c3c3c" fill-rule="evenodd"></path><path d="M-395.754 106.75l8.29-4.786v4.786l-8.29 4.786z" fill="#090909" fill-rule="evenodd"></path><path d="M-404.044 106.75h8.29v4.786h-8.29z" fill="#232323" fill-rule="evenodd"></path><path d="M-412.333 101.964v4.786l8.29 4.786v-4.786z" fill="#232323" fill-rule="evenodd"></path><path d="M-412.333 101.964l8.29 4.786h8.289l8.29-4.786M-404.044 106.75v4.786M-395.754 106.75v4.786" fill="none" stroke="#a2a2a2" stroke-width=".266"></path><path d="M-412.333 97.178v9.572l8.29 4.786h8.289l8.29-4.786v-9.572l-8.29-4.786h-8.29z" fill="none" stroke="#000000" stroke-width=".532"></path><path d="M-412.333 92.01v4.785l8.29 4.786h8.289l8.29-4.786v-4.786l-8.29-4.786h-8.29z" fill="#3c3c3c" fill-rule="evenodd"></path><path d="M-395.754 101.58l8.29-4.785v4.786l-8.29 4.786z" fill="#090909" fill-rule="evenodd"></path><path d="M-404.044 101.58h8.29v4.787h-8.29z" fill="#232323" fill-rule="evenodd"></path><path d="M-412.333 96.795v4.786l8.29 4.786v-4.786z" fill="#232323" fill-rule="evenodd"></path><path d="M-412.333 96.795l8.29 4.786h8.289l8.29-4.786M-404.044 101.58v4.787M-395.754 101.58v4.787" fill="none" stroke="#a2a2a2" stroke-width=".266"></path><path d="M-412.333 92.01v9.57l8.29 4.787h8.289l8.29-4.786v-9.572l-8.29-4.786h-8.29z" fill="none" stroke="#000000" stroke-width=".532"></path><circle cx="-136.478" cy="325.284" fill="#f4b934" r="5.801" transform="scale(1.22475 .7071) rotate(45)"></circle><g font-family="sans-serif" font-size="3.191" stroke-width=".266" style="line-height: 0%;"><path d="M-399.242 93.57l.48-.601q.222-.275.177-.448-.04-.17-.467-.416l-.507-.293 1.065-.614.937.541q.825.476.92.934.1.46-.417 1.114l-3.452 4.39-1.622-.937 1.654-2.121-3.729.923-1.622-.936z" fill="#ffffff" font-family="Droid Serif" font-size="9.971" style="line-height: 1.25;"></path></g></g></svg></g></g><g opacity="1"><g id="ab6891d8-743b-424d-ae23-05722105d8bc" transform="translate(0 0)"><svg x="-462" y="474" height="108.05" width="123" viewBox="0 0 32.544 28.588"><path d="M10.115 6.02v14.218l7.873-4.318V1.474z" fill="#090909" fill-rule="evenodd" stroke="#a2a2a2" stroke-width=".268"></path><path d="M.265 2.228l9.85 3.791v14.219l-9.85-8.531z" fill="#232323" fill-rule="evenodd" stroke="#a2a2a2" stroke-width=".265"></path><path d="M10.115 6.02l7.873-4.546L3.548.332.265 2.228z" fill="#3c3c3c" fill-rule="evenodd" stroke="#a2a2a2" stroke-width=".265"></path><path d="M.265 11.707l9.85 8.53 7.873-4.317V1.474L3.392.271.265 2.076z" fill="none" stroke="#000000" stroke-width=".529"></path><path d="M22.429 3.65L14.22 8.39l14.828 10.397 3.231-1.866z" fill="#3c3c3c" fill-rule="evenodd" stroke="#a2a2a2" stroke-width=".268"></path><path d="M14.22 8.39V22.61l14.777 5.687.051-9.509z" fill="#232323" fill-rule="evenodd" stroke="#a2a2a2" stroke-width=".265"></path><path d="M29.048 18.787l3.231-1.866V26.4l-3.282 1.897z" fill="#090909" fill-rule="evenodd" stroke="#a2a2a2" stroke-width=".265"></path><path d="M22.429 3.65L14.22 8.39V22.61l14.777 5.687 3.282-1.897v-9.478z" fill="none" stroke="#000000" stroke-width=".529"></path><path d="M21.09 20.43q.163.375.048.64t-.44.265q-.326 0-.671-.265-.346-.265-.509-.64-.162-.374-.047-.639t.44-.265q.326 0 .671.265.346.265.509.64zm1.573-1.808q.08.184.022.318-.059.134-.218.134-.16 0-.335-.134-.176-.135-.255-.318-.082-.187-.024-.32.058-.132.22-.132.163 0 .336.132.173.133.254.32zm1.573 3.617q.08.184.021.318-.058.134-.218.134t-.335-.134q-.175-.135-.255-.318-.081-.187-.023-.32.057-.132.22-.132t.335.132q.173.133.255.32zm-1.826-1.487l-.284-.654q-.016-.035-.052-.068-.036-.034-.065-.038l-.513-.084q-.088-.124-.215-.269.03-.17.1-.406.006-.035-.01-.07-.018-.043-.05-.068-.117-.106-.39-.316-.275-.21-.333-.21-.034 0-.054.025l-.215.317q-.143-.067-.284-.11-.2-.38-.309-.547-.058-.085-.129-.085h-.571q-.034 0-.05.027-.016.026-.004.062l.164.54q-.089.036-.182.11l-.5-.315q-.032-.024-.071-.024-.034 0-.053.028-.238.47-.196.565.014.032.05.067.053.05.208.187.155.138.238.216-.003.155.018.29l-.43.084q-.029.004-.038.034-.008.03.008.069l.285.653q.015.036.051.069.036.033.065.037l.513.085q.088.124.215.268-.03.17-.1.407-.005.038.01.07.018.043.052.07.113.107.388.315.275.208.333.209.034 0 .054-.025l.215-.318q.132.064.286.113.2.382.307.544.058.085.129.085h.571q.034 0 .05-.027.016-.026.004-.062l-.164-.54q.089-.035.183-.11l.499.315q.035.024.072.024.033 0 .052-.028.238-.47.196-.565-.014-.032-.05-.067-.062-.057-.212-.19-.15-.135-.23-.213-.004-.169-.022-.29l.431-.08q.028-.007.036-.038.008-.03-.008-.068zm1.147-1.883l-.215-.494q-.025-.057-.505-.11-.079-.095-.172-.183-.017-.4-.056-.488-.006-.014-.023-.024-.483-.251-.49-.251-.024 0-.069.166-.044.166-.055.24-.064-.007-.095-.007t-.09.007q-.075-.074-.264-.24-.188-.166-.213-.166-.006 0-.272.25-.008.011-.002.025.039.088.369.488-.017.088-.012.183-.435.053-.41.11l.215.494q.024.057.505.11.084.102.172.184.017.399.055.487.006.014.023.025l.138.07.234.12q.11.057.117.057.024 0 .07-.164.045-.164.056-.239.064.007.095.007.03 0 .089-.007.266.251.455.396l.021.007q.012 0 .273-.247.008-.01.002-.025-.038-.088-.368-.487.017-.082.012-.184.435-.053.41-.11zm1.572 3.617l-.215-.494q-.024-.057-.505-.11-.078-.095-.172-.184-.017-.399-.055-.487-.006-.014-.023-.025-.484-.25-.49-.25-.025 0-.069.165-.044.166-.055.24-.065-.006-.096-.006-.03 0-.089.007-.075-.075-.264-.24-.189-.166-.213-.166-.006 0-.272.25-.008.01-.002.025.038.088.369.487-.017.088-.013.184-.434.053-.41.11l.215.494q.025.057.505.11.085.102.173.183.016.4.055.488.006.014.023.024l.138.07.233.121q.111.057.117.057.025 0 .07-.165.045-.164.056-.238.065.007.095.007.031 0 .09-.007.265.25.454.396l.022.007q.012 0 .273-.248.008-.01.002-.024-.038-.088-.369-.488.017-.08.013-.183.434-.053.41-.11z" fill="#f4b934"></path></svg></g></g><g opacity="1"><g id="6c6f6ef3-4ceb-4aa1-b55e-038974c8e354" transform="translate(0 0)"><svg x="-632" y="580" height="95.068" width="63" viewBox="0 0 16.669 25.153"><path d="M16.668 22.903q0 1.64-.864 2.091-.865.451-2.297-.376L3.161 18.645q-1.433-.827-2.297-2.276Q.001 14.921 0 13.28q0-.723.042-1.39.042-.666.166-1.394.124-.727.313-1.302.19-.575.51-1.039.319-.464.733-.683.414-.22 1.012-.147.598.073 1.32.49.107.06.497.58.391.52.882 1.165.491.646 1.279 1.394.788.75 1.58 1.207.793.458 1.58.618.788.161 1.28.083.49-.079.881-.147.39-.069.497-.007.722.416 1.32 1.035.598.619 1.013 1.315.414.697.734 1.531t.509 1.627q.19.793.313 1.664.124.872.166 1.586.042.713.042 1.438zM12.88 8.51q0 2.173-1.332 2.942-1.332.769-3.214-.318-1.882-1.086-3.214-3.393Q3.79 5.434 3.79 3.26q0-2.173 1.331-2.942 1.332-.77 3.214.317t3.214 3.394q1.332 2.306 1.332 4.48z" fill="#000" stroke="#000000" stroke-width=".268"></path></svg></g></g></g><g pointer-events="auto"></g><g pointer-events="auto"></g><g pointer-events="auto"><g opacity="1"><g id="5a4038ad-9ffb-43fe-9ec9-8b53d0bea1ca" transform="translate(0 0)"><svg x="-304" y="564" overflow="visible"><text stroke="#ffffff" stroke-width="4" font-family="Open Sans" y="25.099999999999998" font-size="15pt" fill="#f5b720" font-weight="bold" transform="matrix(0.707 0.409 -0.707 0.409 0 0)" xml:space="preserve"><tspan x="8" dy="0">Amazon</tspan></text><text font-family="Open Sans" y="25.099999999999998" font-size="15pt" fill="#f5b720" font-weight="bold" transform="matrix(0.707 0.409 -0.707 0.409 0 0)" xml:space="preserve"><tspan x="8" dy="0">Amazon</tspan></text></svg></g></g><g opacity="1"><g id="d791999d-da0b-4136-97f4-38274797c165" transform="translate(0 0)"><svg x="-320" y="574" overflow="visible"><text stroke="#ffffff" stroke-width="4" font-family="Open Sans" y="36.5" font-size="25pt" fill="#f5b720" font-weight="bold" transform="matrix(0.707 0.409 -0.707 0.409 0 0)" xml:space="preserve"><tspan x="8" dy="0">API Gateway</tspan></text><text font-family="Open Sans" y="36.5" font-size="25pt" fill="#f5b720" font-weight="bold" transform="matrix(0.707 0.409 -0.707 0.409 0 0)" xml:space="preserve"><tspan x="8" dy="0">API Gateway</tspan></text></svg></g></g><g opacity="1"><g id="ae5a6e5f-9e7c-49fa-a462-ddaf7cd91631" transform="translate(0 0)"><svg x="-64" y="407" overflow="visible"><text stroke="#ffffff" stroke-width="4" font-family="Open Sans" y="36.5" font-size="25pt" fill="#f5b720" font-weight="bold" transform="matrix(0.707 0.409 -0.707 0.409 0 0)" xml:space="preserve"><tspan x="8" dy="0">Rails App</tspan><tspan x="8" dy="1.1em">Function</tspan></text><text font-family="Open Sans" y="36.5" font-size="25pt" fill="#f5b720" font-weight="bold" transform="matrix(0.707 0.409 -0.707 0.409 0 0)" xml:space="preserve"><tspan x="8" dy="0">Rails App</tspan><tspan x="8" dy="1.1em">Function</tspan></text></svg></g></g><g opacity="1"><g id="7595de9c-f430-486a-ab99-af7dcc7fa22d" transform="translate(0 0)"><svg x="-576" y="648" overflow="visible"><text stroke="#ffffff" stroke-width="4" font-family="Open Sans" y="25.099999999999998" font-size="15pt" fill="#000000" font-weight="bold" transform="matrix(0.707 -0.409 0.707 0.409 0 0)" xml:space="preserve"><tspan x="8" dy="0">Accesses service</tspan></text><text font-family="Open Sans" y="25.099999999999998" font-size="15pt" fill="#000000" font-weight="bold" transform="matrix(0.707 -0.409 0.707 0.409 0 0)" xml:space="preserve"><tspan x="8" dy="0">Accesses service</tspan></text></svg></g></g><g opacity="1"><g id="10c849af-a7fd-473b-9821-64bfc8a4f2f7" transform="translate(0 0)"><svg x="-352" y="518" overflow="visible"><text stroke="#ffffff" stroke-width="4" font-family="Open Sans" y="25.099999999999998" font-size="15pt" fill="#000000" font-weight="bold" transform="matrix(0.707 -0.409 0.707 0.409 0 0)" xml:space="preserve"><tspan x="8" dy="0">Route request</tspan><tspan x="8" dy="1.1em">to Lambda function</tspan></text><text font-family="Open Sans" y="25.099999999999998" font-size="15pt" fill="#000000" font-weight="bold" transform="matrix(0.707 -0.409 0.707 0.409 0 0)" xml:space="preserve"><tspan x="8" dy="0">Route request</tspan><tspan x="8" dy="1.1em">to Lambda function</tspan></text></svg></g></g><g opacity="1"><g id="bb06fa29-0b13-4912-a9be-eabcbea991a9" transform="translate(0 0)"><svg x="-80" y="361" overflow="visible"><text stroke="#ffffff" stroke-width="4" font-family="Open Sans" y="25.099999999999998" font-size="15pt" fill="#000000" font-weight="bold" transform="matrix(0.707 -0.409 0.707 0.409 0 0)" xml:space="preserve"><tspan x="8" dy="0">CRUD the</tspan><tspan x="8" dy="1.1em">database</tspan></text><text font-family="Open Sans" y="25.099999999999998" font-size="15pt" fill="#000000" font-weight="bold" transform="matrix(0.707 -0.409 0.707 0.409 0 0)" xml:space="preserve"><tspan x="8" dy="0">CRUD the</tspan><tspan x="8" dy="1.1em">database</tspan></text></svg></g></g><g opacity="1"><g id="3f86028c-10fe-4c11-b3c6-47f151e4f7ff" transform="translate(0 0)"><svg x="208" y="416" overflow="visible"><text stroke="#ffffff" stroke-width="4" font-family="Open Sans" y="36.5" font-size="25pt" fill="#f5b720" font-weight="bold" transform="matrix(0.707 0.409 -0.707 0.409 0 0)" xml:space="preserve"><tspan x="8" dy="0">Migration </tspan><tspan x="8" dy="1.1em">Function</tspan></text><text font-family="Open Sans" y="36.5" font-size="25pt" fill="#f5b720" font-weight="bold" transform="matrix(0.707 0.409 -0.707 0.409 0 0)" xml:space="preserve"><tspan x="8" dy="0">Migration </tspan><tspan x="8" dy="1.1em">Function</tspan></text></svg></g></g><g opacity="1"><g id="0b50a445-ec24-4520-bc5f-2d3e182b34e6" transform="translate(0 0)"><svg x="128" y="315" overflow="visible"><text stroke="#ffffff" stroke-width="4" font-family="Open Sans" y="25.099999999999998" font-size="15pt" fill="#000000" font-weight="bold" transform="matrix(0.707 0.409 -0.707 0.409 0 0)" xml:space="preserve"><tspan x="8" dy="0">Migrate the </tspan><tspan x="8" dy="1.1em">database</tspan></text><text font-family="Open Sans" y="25.099999999999998" font-size="15pt" fill="#000000" font-weight="bold" transform="matrix(0.707 0.409 -0.707 0.409 0 0)" xml:space="preserve"><tspan x="8" dy="0">Migrate the </tspan><tspan x="8" dy="1.1em">database</tspan></text></svg></g></g></g><g></g></g></svg>
